<svg width="40" height="40" viewBox="0 0 40 40" fill="none" xmlns="http://www.w3.org/2000/svg">
<g opacity="0.5" clip-path="url(#clip0_413_35885)">
<g clip-path="url(#clip1_413_35885)">
<path d="M20 4C11.1778 4 4 11.1778 4 20C4 28.8222 11.1778 36 20 36C28.8222 36 36 28.8222 36 20C36 11.1778 28.8222 4 20 4ZM20 6.46154C27.4917 6.46154 33.5385 12.5083 33.5385 20C33.5385 27.4917 27.4917 33.5385 20 33.5385C12.5083 33.5385 6.46154 27.4917 6.46154 20C6.46154 12.5083 12.5083 6.46154 20 6.46154ZM15.3477 13.5754L13.5754 15.3477L18.2326 20L13.5778 24.6523L15.3502 26.4246L20 21.7686L24.6523 26.4209L26.4246 24.6523L21.7686 20L26.4209 15.3477L24.6523 13.5754L20 18.2326L15.3477 13.5778V13.5754Z" fill="currentColor" fill-opacity="0.9"/>
</g>
</g>
<defs>
<clipPath id="clip0_413_35885">
<rect width="32" height="32" fill="currentColor" transform="translate(4 4)"/>
</clipPath>
<clipPath id="clip1_413_35885">
<rect width="32" height="32" fill="currentColor" transform="translate(4 4)"/>
</clipPath>
</defs>
</svg>
