<svg width="32" height="32" viewBox="0 0 32 32" fill="none" xmlns="http://www.w3.org/2000/svg">
<path d="M18.0011 30.3327C15.6433 30.3333 13.3218 29.7523 11.2423 28.641C9.16273 27.5298 7.38944 25.9228 6.07954 23.9623C4.76965 22.0019 3.96361 19.7486 3.73287 17.4021C3.50212 15.0556 3.8538 12.6884 4.75672 10.5104C5.65965 8.33231 7.08593 6.41063 8.90918 4.91564C10.7324 3.42065 12.8963 2.39852 15.2091 1.93985C17.5218 1.48117 19.912 1.60012 22.1678 2.28614C24.4236 2.97216 26.4753 4.20407 28.1411 5.87268L23.3345 10.6993C22.2841 9.65424 20.9476 8.94369 19.4938 8.65737C18.04 8.37105 16.5339 8.52178 15.1657 9.09055C13.7974 9.65931 12.6283 10.6206 11.8059 11.8532C10.9835 13.0857 10.5446 14.5343 10.5446 16.016C10.5446 17.4978 10.9835 18.9463 11.8059 20.1789C12.6283 21.4114 13.7974 22.3727 15.1657 22.9415C16.5339 23.5103 18.04 23.661 19.4938 23.3747C20.9476 23.0883 22.2841 22.3778 23.3345 21.3327L28.1611 26.1594C26.8267 27.4909 25.2419 28.5452 23.4982 29.2614C21.7545 29.9777 19.8862 30.3418 18.0011 30.3327Z" fill="#0052FF"/>
</svg>
