<svg width="241" height="200" viewBox="0 0 241 200" fill="none" xmlns="http://www.w3.org/2000/svg">
<path d="M167.506 5.95831C194.871 17.5676 213.114 46.1763 211.041 75.1996C162.116 75.1996 113.191 75.6142 64.2659 74.785C64.2659 55.2979 70.8998 35.3962 84.9968 21.7138C105.728 0.568277 140.141 -6.06562 167.506 5.95831Z" fill="#5FC0C1"/>
<path d="M165.433 192.537C168.335 192.537 170.823 194.195 170.823 196.268C170.823 198.342 168.335 200 165.433 200H86.6551C83.7527 200 81.265 198.342 81.265 196.268C81.265 194.195 83.7527 192.537 86.6551 192.537H165.433Z" fill="#E1177C"/>
<path d="M69.6559 200C72.6328 200 75.0459 197.587 75.0459 194.61C75.0459 191.633 72.6328 189.22 69.6559 189.22C66.6791 189.22 64.2659 191.633 64.2659 194.61C64.2659 197.587 66.6791 200 69.6559 200Z" fill="#E1177C"/>
<path d="M116.922 180.098C119.899 180.098 122.312 177.685 122.312 174.708C122.312 171.732 119.899 169.318 116.922 169.318C113.945 169.318 111.532 171.732 111.532 174.708C111.532 177.685 113.945 180.098 116.922 180.098Z" fill="#E1177C"/>
<path d="M209.382 169.318C212.285 169.318 214.772 171.806 214.772 174.708C214.772 177.611 212.285 180.098 209.382 180.098H132.263C129.361 180.098 126.873 177.611 126.873 174.708C126.873 171.806 129.361 169.318 132.263 169.318H209.382Z" fill="#E1177C"/>
<path d="M15.7555 160.197C18.7324 160.197 21.1455 157.783 21.1455 154.807C21.1455 151.83 18.7324 149.417 15.7555 149.417C12.7787 149.417 10.3655 151.83 10.3655 154.807C10.3655 157.783 12.7787 160.197 15.7555 160.197Z" fill="#E1177C"/>
<path d="M92.4597 149.417C95.362 149.417 97.8497 151.904 97.8497 154.807C97.8497 157.709 95.362 160.197 92.4597 160.197H29.0231C26.1208 160.197 23.6331 157.709 23.6331 154.807C23.6331 151.904 26.1208 149.417 29.0231 149.417H92.4597Z" fill="#E1177C"/>
<path d="M234.674 149.417C237.576 149.417 240.064 151.904 240.064 154.807C240.064 157.709 237.576 160.197 234.674 160.197H108.63C105.727 160.197 103.24 157.709 103.24 154.807C103.24 151.904 105.727 149.417 108.63 149.417H234.674Z" fill="#E1177C"/>
<path d="M211.04 129.515C213.943 129.515 216.43 132.002 216.43 134.905C216.43 137.807 213.943 140.295 211.04 140.295H56.3877C53.4853 140.295 50.9977 137.807 50.9977 134.905C50.9977 132.002 53.4853 129.515 56.3877 129.515H211.04Z" fill="#E1177C"/>
<path d="M39.3886 140.295C42.3654 140.295 44.7786 137.882 44.7786 134.905C44.7786 131.928 42.3654 129.515 39.3886 129.515C36.4118 129.515 33.9985 131.928 33.9985 134.905C33.9985 137.882 36.4118 140.295 39.3886 140.295Z" fill="#E1177C"/>
<path d="M178.7 110.028C181.603 110.028 184.091 112.516 184.091 115.418C184.091 118.32 181.603 120.808 178.7 120.808H24.0479C21.1456 120.808 18.6578 118.32 18.6578 115.418C18.6578 112.516 21.1456 110.028 24.0479 110.028H178.7Z" fill="#E1177C"/>
<path d="M5.39005 120.808C8.36689 120.808 10.78 118.395 10.78 115.418C10.78 112.441 8.36689 110.028 5.39005 110.028C2.41321 110.028 0 112.441 0 115.418C0 118.395 2.41321 120.808 5.39005 120.808Z" fill="#E1177C"/>
<path d="M39.3886 100.906C42.3654 100.906 44.7786 98.4927 44.7786 95.5159C44.7786 92.5391 42.3654 90.1259 39.3886 90.1259C36.4118 90.1259 33.9985 92.5391 33.9985 95.5159C33.9985 98.4927 36.4118 100.906 39.3886 100.906Z" fill="#E1177C"/>
<path d="M225.967 90.1259C228.869 90.1259 231.357 92.6136 231.357 95.5159C231.357 98.4182 228.869 100.906 225.967 100.906H57.6319C54.7295 100.906 52.2418 98.4182 52.2418 95.5159C52.2418 92.6136 54.7295 90.1259 57.6319 90.1259H225.967Z" fill="#E1177C"/>
</svg>
