<svg width="92" height="100" viewBox="0 0 92 100" fill="none" xmlns="http://www.w3.org/2000/svg">
<path d="M91.3014 17.6774C90.2847 13.7574 87.0161 9.83728 81.1328 5.47336C76.4115 1.99703 71.3997 0 67.4048 0C66.6058 0 65.8796 0.0739459 65.1531 0.221887C63.3374 0.591715 61.7394 1.92306 60.7225 3.9201C59.4877 6.28696 59.1972 9.46745 59.9963 11.3905C60.2867 11.9823 60.6499 12.7218 61.0857 13.3875C57.2362 15.7544 55.057 16.4201 54.7666 16.4941C64.7901 19.8963 73.1431 26.9971 78.3727 36.2426L78.4453 35.3549C78.6632 32.9142 79.3894 30.1034 80.4063 27.2189C81.4232 27.5147 82.4401 27.6627 83.457 27.6627C86.1445 27.6627 88.4688 26.5532 89.9215 24.5561C91.3742 22.5591 91.9553 19.8963 91.3014 17.6774Z" fill="#5E12A0"/>
<path d="M80.8419 25.0727C87.4517 26.922 90.139 21.7445 89.2674 18.2681C88.3233 14.7918 85.2726 11.2415 79.8976 7.24738C74.5228 3.25332 69.0753 1.62608 65.5887 2.36574C62.1022 3.10537 61.0853 8.50479 61.9571 10.5758C62.3201 11.3894 63.1191 12.5727 64.2086 13.9041C62.8287 14.8656 61.5213 15.6053 60.4316 16.271C67.114 19.3036 72.9248 24.0374 77.2829 29.9546C77.7912 27.9575 78.5177 26.1823 79.1713 24.6291C79.6797 24.7031 80.2608 24.8509 80.8419 25.0727Z" fill="url(#paint0_radial_21_6133)"/>
<path d="M43.0009 97.5584C65.4251 97.5584 83.6036 79.0471 83.6036 56.2123C83.6036 33.3775 65.4251 14.8662 43.0009 14.8662C20.5768 14.8662 2.39844 33.3775 2.39844 56.2123C2.39844 79.0471 20.5768 97.5584 43.0009 97.5584Z" fill="url(#paint1_radial_21_6133)"/>
<path opacity="0.6" d="M85.9267 14.8665C80.4066 8.9493 75.7581 7.39605 70.1652 6.13867C65.8071 5.10315 66.9693 2.58837 72.2715 3.10612C69.7294 2.21855 67.3323 1.99666 65.5892 2.36646C62.1027 3.10612 61.086 8.50553 61.9576 10.5765C62.3205 11.3901 63.1196 12.5736 64.209 13.905C62.248 15.2364 60.5774 16.1979 59.1973 16.9376C59.8512 17.2334 60.65 17.603 61.5943 18.1209C64.0639 19.4523 66.7514 21.6712 66.7514 21.6712C62.6838 18.1209 63.5554 16.4937 69.1482 12.4996C70.8914 11.2422 74.0875 11.3901 77.0654 12.9435C80.0433 14.4967 83.5299 18.4168 83.5299 18.4168L80.1887 24.9256C80.4066 24.9996 80.6245 25.0736 80.8424 25.1476C82.9487 25.7393 84.6193 25.5913 85.9267 25.0736C87.4522 24.1121 91.447 20.8577 85.9267 14.8665Z" fill="#A98698"/>
<path d="M70.0903 9.68895C71.543 10.2807 73.4315 11.3162 75.7558 12.8695C78.516 14.7186 80.9129 16.7896 82.4381 18.4168C79.8959 21.819 78.2254 26.4788 77.2085 29.7333C77.717 30.473 78.2982 31.2127 78.8065 31.9524C79.3148 30.1031 80.1866 27.3663 81.3486 24.6298C81.6393 24.7038 82.0023 24.7038 82.3656 24.7038C83.2371 24.7038 84.254 24.5558 85.0531 23.8901C85.6342 23.4462 86.2879 22.6328 86.2151 21.1534C86.2151 19.7482 85.1256 17.973 82.8741 15.8281C81.2761 14.2747 79.0969 12.5735 76.918 11.0203C70.6714 6.80434 66.3134 5.62091 64.3523 7.61794C63.045 8.94931 63.1901 10.5765 63.6259 11.76C61.3016 13.3132 59.3406 14.4227 58.0332 15.1624C58.9048 15.4583 59.7038 15.8281 60.5754 16.1977C62.8996 14.9404 66.2408 12.7955 70.0903 9.68895ZM83.8183 20.2659C84.0361 20.6357 84.1087 21.0056 84.1087 21.2274C84.1087 21.8931 83.8908 22.1149 83.7457 22.2629C83.455 22.4847 82.8739 22.6328 82.3656 22.6328C82.8013 21.7453 83.3099 21.0056 83.8183 20.2659ZM65.8776 9.24517C66.0955 9.02328 66.6766 8.87534 67.6209 9.02328C66.8945 9.615 66.1683 10.1327 65.4418 10.6505C65.3692 10.1327 65.4418 9.615 65.8776 9.24517Z" fill="#5E12A0"/>
<path d="M42.9996 12.4248C19.2481 12.4248 0 32.0255 0 56.2118C0 80.3983 19.2481 99.9988 42.9996 99.9988C66.7508 99.9988 85.9988 80.3983 85.9988 56.2118C85.9988 32.0255 66.6782 12.4248 42.9996 12.4248ZM42.9996 97.5579C20.5554 97.5579 2.39694 79.067 2.39694 56.2118C2.39694 33.3569 20.5554 14.8657 42.9996 14.8657C65.4434 14.8657 83.602 33.3569 83.602 56.2118C83.602 79.067 65.3709 97.5579 42.9996 97.5579Z" fill="#5E12A0"/>
<path opacity="0.6" d="M43.0009 97.5584C65.4251 97.5584 83.6036 79.0471 83.6036 56.2123C83.6036 33.3775 65.4251 14.8662 43.0009 14.8662C20.5768 14.8662 2.39844 33.3775 2.39844 56.2123C2.39844 79.0471 20.5768 97.5584 43.0009 97.5584Z" fill="url(#paint2_linear_21_6133)"/>
<path opacity="0.6" d="M42.7089 92.5297C20.5555 88.9054 5.52014 67.6777 9.15179 45.1184C10.7498 35.1334 15.6888 26.6275 22.6618 20.4883C12.493 26.4795 4.93907 36.9084 2.90532 49.6304C-0.653773 72.1895 14.3814 93.4174 36.4624 97.0417C48.8102 99.1125 60.7222 95.1924 69.5109 87.5C61.7391 92.0861 52.2967 94.0829 42.7089 92.5297Z" fill="#A98698"/>
<path opacity="0.6" d="M49.4642 15.459C39.2228 13.7578 29.2721 16.1247 21.1372 21.3761C20.9918 21.5242 20.8467 21.672 20.8467 21.672C23.9698 19.7489 28.5459 18.0477 28.5459 18.0477C16.7791 25.0004 13.1475 32.9146 13.1475 32.9146C17.7234 23.8911 31.1606 17.5301 41.6924 17.0862C52.2245 16.6426 59.1248 19.8229 67.5503 26.7016C75.9758 33.6543 81.0603 47.8555 80.5517 59.0982C80.116 70.3406 74.3054 79.4384 74.3054 79.4384C78.3003 74.1869 80.6973 70.3406 82.2226 66.4205C82.5133 65.2372 82.8037 64.0538 82.949 62.7962C86.5807 40.3112 71.6177 19.0832 49.4642 15.459Z" fill="url(#paint3_linear_21_6133)"/>
<path d="M81.5684 55.8438C81.5684 77.5153 64.2814 95.119 42.9998 95.119C21.718 95.119 4.3584 77.5153 4.3584 55.8438H81.5684Z" fill="url(#paint4_linear_21_6133)"/>
<g opacity="0.6">
<path opacity="0.6" d="M78.518 55.8438C78.518 76.9977 62.1028 94.3053 41.4746 95.119C41.9832 95.119 42.4915 95.119 42.9999 95.119C64.2817 95.119 81.5687 77.5153 81.5687 55.8438H78.518Z" fill="url(#paint5_linear_21_6133)"/>
</g>
<g opacity="0.7">
<path opacity="0.7" d="M9.806 55.8438H4.3584C4.3584 77.5153 21.6455 95.119 42.927 95.119C43.8714 95.119 44.743 95.119 45.6145 95.045C25.6403 93.5658 9.806 76.5538 9.806 55.8438Z" fill="url(#paint6_linear_21_6133)"/>
</g>
<path d="M81.4959 56.2125C81.4959 51.7007 73.7966 49.112 63.5552 48.2245C56.1466 47.6326 48.6653 48.3723 40.0944 51.035C32.6856 53.2539 26.0032 52.884 21.1369 52.2924C10.3143 51.035 4.3584 50.887 4.3584 56.2125C4.3584 63.9049 19.7567 73.5203 42.8545 70.1919C54.5486 68.4907 60.5773 65.0144 67.4775 62.6475C74.9589 60.1326 81.4959 60.2066 81.4959 56.2125Z" fill="url(#paint7_linear_21_6133)"/>
<path d="M55.6376 37.5742C59.2479 37.5742 62.1746 34.5941 62.1746 30.9176C62.1746 27.2411 59.2479 24.2607 55.6376 24.2607C52.0273 24.2607 49.1006 27.2411 49.1006 30.9176C49.1006 34.5941 52.0273 37.5742 55.6376 37.5742Z" fill="white"/>
<path d="M66.3157 42.5295C67.8402 42.5295 69.0758 41.2712 69.0758 39.7187C69.0758 38.1665 67.8402 36.9082 66.3157 36.9082C64.7914 36.9082 63.5557 38.1665 63.5557 39.7187C63.5557 41.2712 64.7914 42.5295 66.3157 42.5295Z" fill="white"/>
<g opacity="0.6">
<path opacity="0.6" d="M76.1939 25.5915C76.1214 25.5915 76.0486 25.5915 76.0486 25.5915C75.6128 25.5175 75.3223 25.0738 75.3949 24.5559C76.0486 21.1537 78.8086 17.8991 78.954 17.7513C79.2444 17.3814 79.8255 17.3814 80.1162 17.6773C80.4792 17.9731 80.4792 18.5648 80.1888 18.8608C80.1162 18.9346 77.5738 21.9672 76.9929 24.9258C76.9201 25.3697 76.5571 25.5915 76.1939 25.5915Z" fill="url(#paint8_linear_21_6133)"/>
</g>
<path opacity="0.2" d="M40.316 87.056C41.4391 87.056 42.3496 86.1288 42.3496 84.9851C42.3496 83.8413 41.4391 82.9141 40.316 82.9141C39.1928 82.9141 38.2822 83.8413 38.2822 84.9851C38.2822 86.1288 39.1928 87.056 40.316 87.056Z" fill="white"/>
<g opacity="0.4">
<path opacity="0.6" d="M39.1504 86.3196C38.3517 85.5059 38.3517 84.1745 39.1504 83.3611C39.2958 83.213 39.4411 83.1393 39.5862 82.9912C39.2958 83.0652 39.0779 83.213 38.86 83.4351C38.061 84.2486 38.061 85.5799 38.86 86.3937C39.5137 87.0593 40.5306 87.2071 41.3296 86.7635C40.6031 87.0593 39.7316 86.9113 39.1504 86.3196Z" fill="url(#paint9_linear_21_6133)"/>
</g>
<path opacity="0.3" d="M41.0393 84.3934C41.28 84.3934 41.4753 84.1948 41.4753 83.9497C41.4753 83.7046 41.28 83.5059 41.0393 83.5059C40.7986 83.5059 40.6035 83.7046 40.6035 83.9497C40.6035 84.1948 40.7986 84.3934 41.0393 84.3934Z" fill="white"/>
<path opacity="0.2" d="M50.9213 86.0198C52.0446 86.0198 52.9551 85.0926 52.9551 83.949C52.9551 82.8051 52.0446 81.8779 50.9213 81.8779C49.7982 81.8779 48.8877 82.8051 48.8877 83.949C48.8877 85.0926 49.7982 86.0198 50.9213 86.0198Z" fill="white"/>
<g opacity="0.4">
<path opacity="0.6" d="M49.7559 85.2825C48.9569 84.4688 48.9569 83.1374 49.7559 82.3239C49.9013 82.1759 50.0464 82.1021 50.1917 81.9541C49.9013 82.0281 49.6834 82.1759 49.4655 82.398C48.6665 83.2115 48.6665 84.5428 49.4655 85.3565C50.1192 86.0222 51.1361 86.17 51.9348 85.7264C51.2086 86.0222 50.337 85.8742 49.7559 85.2825Z" fill="url(#paint10_linear_21_6133)"/>
</g>
<path opacity="0.3" d="M51.6428 83.3575C51.8835 83.3575 52.0786 83.1587 52.0786 82.9136C52.0786 82.6685 51.8835 82.4697 51.6428 82.4697C51.4021 82.4697 51.207 82.6685 51.207 82.9136C51.207 83.1587 51.4021 83.3575 51.6428 83.3575Z" fill="white"/>
<path opacity="0.2" d="M45.6866 90.8273C46.529 90.8273 47.2119 90.132 47.2119 89.2741C47.2119 88.4163 46.529 87.7207 45.6866 87.7207C44.844 87.7207 44.1611 88.4163 44.1611 89.2741C44.1611 90.132 44.844 90.8273 45.6866 90.8273Z" fill="white"/>
<g opacity="0.4">
<path opacity="0.6" d="M44.8168 90.2388C44.2357 89.6471 44.2357 88.6116 44.8168 88.0199C44.8894 87.9459 45.0347 87.8719 45.1073 87.7979C44.8894 87.8719 44.744 88.0199 44.5989 88.1677C44.0178 88.7594 44.0178 89.7949 44.5989 90.3866C45.1073 90.9045 45.8335 90.9785 46.4874 90.6086C45.9063 90.8305 45.2526 90.6827 44.8168 90.2388Z" fill="url(#paint11_linear_21_6133)"/>
</g>
<path opacity="0.3" d="M46.196 88.7577C46.3563 88.7577 46.4864 88.6251 46.4864 88.4619C46.4864 88.2984 46.3563 88.166 46.196 88.166C46.0354 88.166 45.9053 88.2984 45.9053 88.4619C45.9053 88.6251 46.0354 88.7577 46.196 88.7577Z" fill="white"/>
<path opacity="0.2" d="M55.0565 89.7187C55.8989 89.7187 56.5817 89.0233 56.5817 88.1655C56.5817 87.3077 55.8989 86.6123 55.0565 86.6123C54.2141 86.6123 53.5312 87.3077 53.5312 88.1655C53.5312 89.0233 54.2141 89.7187 55.0565 89.7187Z" fill="white"/>
<g opacity="0.4">
<path opacity="0.6" d="M54.185 89.1294C53.6039 88.5375 53.6039 87.502 54.185 86.9103C54.2575 86.8363 54.4029 86.7625 54.4754 86.6885C54.2575 86.7625 54.1122 86.9103 53.9671 87.0583C53.386 87.65 53.386 88.6855 53.9671 89.2772C54.4754 89.7951 55.2017 89.8689 55.8556 89.499C55.2744 89.7211 54.6208 89.573 54.185 89.1294Z" fill="url(#paint12_linear_21_6133)"/>
</g>
<path opacity="0.3" d="M55.5639 87.6476C55.7244 87.6476 55.8546 87.515 55.8546 87.3515C55.8546 87.1883 55.7244 87.0557 55.5639 87.0557C55.4036 87.0557 55.2734 87.1883 55.2734 87.3515C55.2734 87.515 55.4036 87.6476 55.5639 87.6476Z" fill="white"/>
<path opacity="0.2" d="M31.6683 86.3156C33.5137 86.3156 35.0095 84.7921 35.0095 82.9132C35.0095 81.034 33.5137 79.5107 31.6683 79.5107C29.823 79.5107 28.3271 81.034 28.3271 82.9132C28.3271 84.7921 29.823 86.3156 31.6683 86.3156Z" fill="white"/>
<g opacity="0.4">
<path opacity="0.6" d="M29.7815 85.0589C28.4742 83.7275 28.4742 81.5824 29.7815 80.251C29.9994 80.0292 30.2173 79.8812 30.508 79.7334C30.0722 79.8812 29.709 80.1773 29.3457 80.4731C28.0384 81.8045 28.0384 83.9493 29.3457 85.2807C30.4355 86.3903 32.106 86.6121 33.4134 85.7983C32.1786 86.3162 30.7259 86.0944 29.7815 85.0589Z" fill="url(#paint13_linear_21_6133)"/>
</g>
<path opacity="0.3" d="M32.8307 81.8776C33.2319 81.8776 33.5572 81.5465 33.5572 81.1381C33.5572 80.7296 33.2319 80.3984 32.8307 80.3984C32.4297 80.3984 32.1045 80.7296 32.1045 81.1381C32.1045 81.5465 32.4297 81.8776 32.8307 81.8776Z" fill="white"/>
<path opacity="0.2" d="M61.5228 77.9599C63.3679 77.9599 64.864 76.4366 64.864 74.5575C64.864 72.6786 63.3679 71.1553 61.5228 71.1553C59.6775 71.1553 58.1816 72.6786 58.1816 74.5575C58.1816 76.4366 59.6775 77.9599 61.5228 77.9599Z" fill="white"/>
<g opacity="0.4">
<path opacity="0.6" d="M59.5599 76.7005C58.2525 75.3691 58.2525 73.2243 59.5599 71.8929C59.7777 71.6708 59.9956 71.523 60.2863 71.375C59.8505 71.523 59.4873 71.8189 59.1241 72.1147C57.8167 73.4461 57.8167 75.5912 59.1241 76.9225C60.2135 78.0319 61.8841 78.2539 63.1917 77.4402C61.9569 77.9578 60.5768 77.736 59.5599 76.7005Z" fill="url(#paint14_linear_21_6133)"/>
</g>
<path opacity="0.3" d="M62.6835 73.5204C63.0847 73.5204 63.4097 73.1893 63.4097 72.7807C63.4097 72.3721 63.0847 72.041 62.6835 72.041C62.2823 72.041 61.957 72.3721 61.957 72.7807C61.957 73.1893 62.2823 73.5204 62.6835 73.5204Z" fill="white"/>
<defs>
<radialGradient id="paint0_radial_21_6133" cx="0" cy="0" r="1" gradientUnits="userSpaceOnUse" gradientTransform="translate(87.9427 13.6083) scale(32.4635 33.0581)">
<stop stop-color="#FFEAFF" stop-opacity="0.6"/>
<stop offset="0.6807" stop-color="#A087C9"/>
<stop offset="1" stop-color="#10002F"/>
</radialGradient>
<radialGradient id="paint1_radial_21_6133" cx="0" cy="0" r="1" gradientUnits="userSpaceOnUse" gradientTransform="translate(69.8832 27.7074) scale(79.4262 80.8809)">
<stop stop-color="#FFEAFF" stop-opacity="0.6"/>
<stop offset="0.6807" stop-color="#A087C9"/>
<stop offset="1" stop-color="#10002F"/>
</radialGradient>
<linearGradient id="paint2_linear_21_6133" x1="36.4879" y1="96.9719" x2="49.942" y2="15.4613" gradientUnits="userSpaceOnUse">
<stop stop-color="#81FFFF"/>
<stop offset="0.6202" stop-color="white" stop-opacity="0"/>
</linearGradient>
<linearGradient id="paint3_linear_21_6133" x1="71.6142" y1="28.134" x2="37.4836" y2="58.8867" gradientUnits="userSpaceOnUse">
<stop offset="0.2888" stop-color="white"/>
<stop offset="0.7796" stop-color="white" stop-opacity="0"/>
</linearGradient>
<linearGradient id="paint4_linear_21_6133" x1="4.39107" y1="75.4585" x2="81.5498" y2="75.4585" gradientUnits="userSpaceOnUse">
<stop stop-color="#0002E9"/>
<stop offset="0.9952" stop-color="#FF00C7"/>
</linearGradient>
<linearGradient id="paint5_linear_21_6133" x1="85.2025" y1="59.2903" x2="42.4869" y2="98.9327" gradientUnits="userSpaceOnUse">
<stop offset="0.2888" stop-color="white"/>
<stop offset="0.7796" stop-color="white" stop-opacity="0"/>
</linearGradient>
<linearGradient id="paint6_linear_21_6133" x1="4.39107" y1="75.4585" x2="45.6706" y2="75.4585" gradientUnits="userSpaceOnUse">
<stop stop-color="#000292"/>
<stop offset="0.9952" stop-color="#7D00C7"/>
</linearGradient>
<linearGradient id="paint7_linear_21_6133" x1="4.44286" y1="59.4752" x2="81.4979" y2="59.4752" gradientUnits="userSpaceOnUse">
<stop stop-color="#000292"/>
<stop offset="0.9952" stop-color="#BE00C7"/>
</linearGradient>
<linearGradient id="paint8_linear_21_6133" x1="80.2341" y1="17.391" x2="74.5491" y2="26.463" gradientUnits="userSpaceOnUse">
<stop offset="0.2888" stop-color="white"/>
<stop offset="0.7796" stop-color="white" stop-opacity="0"/>
</linearGradient>
<linearGradient id="paint9_linear_21_6133" x1="38.2588" y1="85.0517" x2="41.3318" y2="85.0517" gradientUnits="userSpaceOnUse">
<stop offset="0.2888" stop-color="white"/>
<stop offset="0.7796" stop-color="white" stop-opacity="0"/>
</linearGradient>
<linearGradient id="paint10_linear_21_6133" x1="48.8567" y1="84.0004" x2="51.9297" y2="84.0004" gradientUnits="userSpaceOnUse">
<stop offset="0.2888" stop-color="white"/>
<stop offset="0.7796" stop-color="white" stop-opacity="0"/>
</linearGradient>
<linearGradient id="paint11_linear_21_6133" x1="44.1536" y1="89.2949" x2="46.4607" y2="89.2949" gradientUnits="userSpaceOnUse">
<stop offset="0.2888" stop-color="white"/>
<stop offset="0.7796" stop-color="white" stop-opacity="0"/>
</linearGradient>
<linearGradient id="paint12_linear_21_6133" x1="53.4904" y1="88.1826" x2="55.7972" y2="88.1826" gradientUnits="userSpaceOnUse">
<stop offset="0.2888" stop-color="white"/>
<stop offset="0.7796" stop-color="white" stop-opacity="0"/>
</linearGradient>
<linearGradient id="paint13_linear_21_6133" x1="28.332" y1="83.0006" x2="33.3504" y2="83.0006" gradientUnits="userSpaceOnUse">
<stop offset="0.2888" stop-color="white"/>
<stop offset="0.7796" stop-color="white" stop-opacity="0"/>
</linearGradient>
<linearGradient id="paint14_linear_21_6133" x1="58.138" y1="74.6397" x2="63.1567" y2="74.6397" gradientUnits="userSpaceOnUse">
<stop offset="0.2888" stop-color="white"/>
<stop offset="0.7796" stop-color="white" stop-opacity="0"/>
</linearGradient>
</defs>
</svg>
