<svg width="20" height="18" viewBox="0 0 20 18" fill="none" xmlns="http://www.w3.org/2000/svg">
<path d="M4 3.878V3C4 2.40326 4.23705 1.83097 4.65901 1.40901C5.08097 0.987053 5.65326 0.75 6.25 0.75H13.75C14.3467 0.75 14.919 0.987053 15.341 1.40901C15.7629 1.83097 16 2.40326 16 3V3.878M4 3.878C4.235 3.795 4.487 3.75 4.75 3.75H15.25C15.513 3.75 15.765 3.795 16 3.878M4 3.878C3.56121 4.03313 3.18133 4.32052 2.91269 4.70056C2.64404 5.0806 2.49986 5.5346 2.5 6V6.878M16 3.878C16.4388 4.03313 16.8187 4.32052 17.0873 4.70056C17.356 5.0806 17.5001 5.5346 17.5 6V6.878M17.5 6.878C17.2591 6.79299 17.0055 6.7497 16.75 6.75H3.25C2.987 6.75 2.735 6.795 2.5 6.878M17.5 6.878C17.9388 7.03313 18.3187 7.32052 18.5873 7.70056C18.856 8.0806 19.0001 8.5346 19 9V15C19 15.5967 18.7629 16.169 18.341 16.591C17.919 17.0129 17.3467 17.25 16.75 17.25H3.25C2.65326 17.25 2.08097 17.0129 1.65901 16.591C1.23705 16.169 1 15.5967 1 15V9C1 8.02 1.626 7.187 2.5 6.878" stroke="white" stroke-opacity="0.8" stroke-width="1.5" stroke-linecap="round" stroke-linejoin="round"/>
</svg>