<svg width="20" height="18" viewBox="0 0 20 18" fill="none" xmlns="http://www.w3.org/2000/svg">
<path d="M19 9C19 8.40326 18.7629 7.83097 18.341 7.40901C17.919 6.98705 17.3467 6.75 16.75 6.75H13C13 7.54565 12.6839 8.30871 12.1213 8.87132C11.5587 9.43393 10.7956 9.75 10 9.75C9.20435 9.75 8.44129 9.43393 7.87868 8.87132C7.31607 8.30871 7 7.54565 7 6.75H3.25C2.65326 6.75 2.08097 6.98705 1.65901 7.40901C1.23705 7.83097 1 8.40326 1 9M19 9V15C19 15.5967 18.7629 16.169 18.341 16.591C17.919 17.0129 17.3467 17.25 16.75 17.25H3.25C2.65326 17.25 2.08097 17.0129 1.65901 16.591C1.23705 16.169 1 15.5967 1 15V9M19 9V6M1 9V6M19 6C19 5.40326 18.7629 4.83097 18.341 4.40901C17.919 3.98705 17.3467 3.75 16.75 3.75H3.25C2.65326 3.75 2.08097 3.98705 1.65901 4.40901C1.23705 4.83097 1 5.40326 1 6M19 6V3C19 2.40326 18.7629 1.83097 18.341 1.40901C17.919 0.987053 17.3467 0.75 16.75 0.75H3.25C2.65326 0.75 2.08097 0.987053 1.65901 1.40901C1.23705 1.83097 1 2.40326 1 3V6" stroke="white" stroke-width="1.5" stroke-linecap="round" stroke-linejoin="round"/>
</svg>
