<svg width="32" height="32" viewBox="0 0 32 32" fill="none" xmlns="http://www.w3.org/2000/svg">
<path d="M7.2938 4.90146L15.7143 0L24.1348 4.90146L21.039 6.71219L15.7143 3.62147L10.3896 6.71219L7.2938 4.90146ZM24.1348 11.0829L21.039 9.27219L15.7143 12.3629L10.3896 9.27219L7.2938 11.0829V14.7044L12.6185 17.7951V23.9766L15.7143 25.7873L18.8101 23.9766V17.7951L24.1348 14.7044V11.0829ZM24.1348 20.8859V17.2644L21.039 19.0751V22.6966L24.1348 20.8859ZM26.3328 22.1659L21.0081 25.2566V28.878L29.4286 23.9766V14.1737L26.3328 15.9844V22.1659ZM23.237 7.9922L26.3328 9.80293V13.4244L29.4286 11.6137V7.9922L26.3328 6.18146L23.237 7.9922ZM12.6185 26.5678V30.1893L15.7143 32L18.8101 30.1893V26.5678L15.7143 28.3785L12.6185 26.5678ZM7.2938 20.8859L10.3896 22.6966V19.0751L7.2938 17.2644V20.8859ZM12.6185 7.9922L15.7143 9.80293L18.8101 7.9922L15.7143 6.18146L12.6185 7.9922ZM5.09577 9.80293L8.19154 7.9922L5.09577 6.18146L2 7.9922V11.6137L5.09577 13.4244V9.80293ZM5.09577 15.9844L2 14.1737V23.9766L10.4205 28.878V25.2566L5.09577 22.1659V15.9844Z" fill="#F0B90B"/>
</svg>
