<svg width="32" height="32" viewBox="0 0 32 32" fill="none" xmlns="http://www.w3.org/2000/svg">
<g clip-path="url(#clip0_976_50414)">
<path d="M0 8.125C0 3.63769 3.63769 0 8.125 0H23.875C28.3623 0 32 3.63769 32 8.125V23.875C32 28.3623 28.3623 32 23.875 32H8.125C3.63769 32 0 28.3623 0 23.875V8.125Z" fill="white"/>
<path d="M16.0094 6.71875C19.2381 9.41525 22.9407 9.24894 23.9985 9.24894C23.7671 24.5846 22.004 21.5436 16.0094 25.8438C10.0147 21.5436 8.26266 24.5846 8.03125 9.24894C9.07809 9.24894 12.7807 9.41525 16.0094 6.71875Z" stroke="#3375BB" stroke-width="2" stroke-miterlimit="10" stroke-linecap="round" stroke-linejoin="round"/>
</g>
<defs>
<clipPath id="clip0_976_50414">
<rect width="32" height="32" fill="white"/>
</clipPath>
</defs>
</svg>
